<?xml version="1.0" encoding="utf-8"?><!-- Uploaded to: SVG Repo, www.svgrepo.com, Generator: SVG Repo Mixer Tools -->
<svg width="800px" height="800px" viewBox="0 -0.5 25 25" fill="none" xmlns="http://www.w3.org/2000/svg">
<path d="M12.25 18.25C15.0114 18.25 17.25 16.0114 17.25 13.25C17.25 10.4886 15.0114 8.25 12.25 8.25C9.48858 8.25 7.25 10.4886 7.25 13.25C7.25 16.0114 9.48858 18.25 12.25 18.25Z" stroke="#000000" stroke-width="1.5" stroke-linecap="round" stroke-linejoin="round"/>
<path d="M2.25001 10C2.24847 9.13152 2.52963 8.28612 3.051 7.59155C3.57238 6.89699 4.30564 6.39103 5.14001 6.15002C5.96585 5.90841 6.69178 5.40688 7.21001 4.71997L8.05001 3.59998C8.4226 3.10319 8.90574 2.69995 9.46116 2.42224C10.0166 2.14453 10.629 2 11.25 2H13.25C13.871 2 14.4834 2.14453 15.0389 2.42224C15.5943 2.69995 16.0774 3.10319 16.45 3.59998L17.3 4.71997C17.8141 5.41113 18.5416 5.91375 19.37 6.15002C20.2025 6.39284 20.9336 6.89959 21.453 7.59399C21.9725 8.2884 22.2522 9.13281 22.25 10L21.58 18C21.4726 19.081 20.9726 20.0851 20.1746 20.8223C19.3766 21.5594 18.3361 21.9784 17.25 22H7.25001C6.16389 21.9784 5.12339 21.5594 4.32543 20.8223C3.52747 20.0851 3.02746 19.081 2.92002 18L2.25001 10Z" stroke="#000000" stroke-width="1.5" stroke-linecap="round" stroke-linejoin="round"/>
</svg>