<svg version="1.1" xmlns="http://www.w3.org/2000/svg" xmlns:xlink="http://www.w3.org/1999/xlink" width="81.43594" height="139.50653" viewBox="0,0,81.43594,139.50653"><g transform="translate(-279.28203,-110.24673)"><g data-paper-data="{&quot;isPaintingLayer&quot;:true}" fill-rule="nonzero" stroke-linejoin="miter" stroke-miterlimit="10" stroke-dasharray="" stroke-dashoffset="0" style="mix-blend-mode: normal"><path d="M320.13942,185.67516v60.3281" fill="none" stroke="#803100" stroke-width="7.5" stroke-linecap="round"/><path d="M283.03203,150.9647c0,-20.41684 16.55113,-36.96797 36.96797,-36.96797c20.41685,0 36.96797,16.55113 36.96797,36.96797c0,20.41684 -16.55112,36.96797 -36.96797,36.96797c-20.41685,0 -36.96797,-16.55113 -36.96797,-36.96797z" fill="none" stroke="#2bcc00" stroke-width="7.5" stroke-linecap="butt"/><path d="M283.48562,152.09869h71.21437" fill="none" stroke="#2bcc00" stroke-width="7.5" stroke-linecap="round"/><path d="M319.31961,116.7183v69.39999" fill="none" stroke="#2bcc00" stroke-width="7.5" stroke-linecap="round"/><path d="M294.40994,207.56604l25.32523,12.68666" fill="none" stroke="#803100" stroke-width="7.5" stroke-linecap="round"/><path d="M346.96131,208.0301l-25.32523,12.68666" data-paper-data="{&quot;index&quot;:null}" fill="none" stroke="#803100" stroke-width="7.5" stroke-linecap="round"/><path d="M286.20719,206.53006c0,-3.7577 3.04622,-6.80392 6.80392,-6.80392c3.7577,0 6.80392,3.04622 6.80392,6.80392c0,3.7577 -3.04622,6.80392 -6.80392,6.80392c-3.7577,0 -6.80392,-3.04622 -6.80392,-6.80392z" fill="#2bcc00" stroke="#2bcc00" stroke-width="4" stroke-linecap="butt"/><path d="M342.4634,208.35489c0,-3.7577 3.04622,-6.80392 6.80392,-6.80392c3.7577,0 6.80392,3.04622 6.80392,6.80392c0,3.7577 -3.04622,6.80392 -6.80392,6.80392c-3.7577,0 -6.80392,-3.04622 -6.80392,-6.80392z" fill="#2bcc00" stroke="#2bcc00" stroke-width="4" stroke-linecap="butt"/></g></g></svg>